<svg width="1500" height="1263" viewBox="0 0 1500 1263" fill="none" xmlns="http://www.w3.org/2000/svg">
<path d="M239.593 36.2019C239.593 36.2019 55.3702 108.19 14.3204 250.389C-166.663 877.325 1557.46 937.857 1497.78 512.469C1468.75 305.49 940.396 437.475 802.939 502.791C621.902 588.816 375.877 755.292 436.044 965.727C449.839 1013.98 473.152 1041.9 514.806 1074.55C563.565 1112.76 609.96 1133.15 669.771 1155.72C747.397 1185.01 927.439 1233.13 1166.87 1262.22" stroke="white" stroke-linecap="round" vector-effect="non-scaling-stroke" />
<path d="M312.316 9.95847L267.797 1L277.357 15.5993L287.85 32.3412L312.316 9.95847Z" stroke="white" stroke-linecap="round" stroke-linejoin="round" vector-effect="non-scaling-stroke" />
<path d="M312.316 9.95832L277.347 15.5973L275.656 24.0035L281.3 22.4495" stroke="white" stroke-linecap="round" stroke-linejoin="round" vector-effect="non-scaling-stroke" />
</svg>
