<svg width="443" height="240" viewBox="0 0 443 240" fill="none" xmlns="http://www.w3.org/2000/svg">
<path d="M391.878 155.7C394.808 150.686 402.063 150.685 404.992 155.7L440.909 217.197C446.813 227.306 439.512 240 427.796 240H369.075C357.358 240 350.057 227.306 355.961 217.197L391.878 155.7Z" fill="white"/>
<path d="M302.671 4.60187C306.186 -1.48115 314.966 -1.48125 318.48 4.60187L389.326 127.243C378.843 114.54 358.2 115.682 349.543 130.668L295.153 224.82C289.731 234.207 279.705 239.991 268.854 239.991H182.509C175.481 239.991 171.089 232.381 174.605 226.295L302.671 4.60187Z" fill="white"/>
<path d="M129.304 4.56236C132.818 -1.52077 141.598 -1.5208 145.112 4.56236L215.959 127.204C205.476 114.5 184.833 115.642 176.176 130.628L121.786 224.781C116.364 234.168 106.337 239.951 95.4863 239.952H9.14174C2.11364 239.951 -2.27777 232.341 1.23781 226.255L129.304 4.56236Z" fill="white"/>
<path d="M410.113 0.459448C428.161 0.459625 442.793 15.0746 442.793 33.1032C442.792 51.1315 428.161 65.7467 410.113 65.7469C392.064 65.7469 377.433 51.1316 377.432 33.1032C377.432 15.0745 392.064 0.459464 410.113 0.459448Z" fill="white"/>
</svg>
