<svg width="512" height="512" viewBox="0 0 512 512" fill="none" xmlns="http://www.w3.org/2000/svg">
<rect width="512" height="512" rx="16" fill="white"/>
<path d="M432.467 294.824C435.648 289.37 443.53 289.37 446.712 294.824L485.729 361.702C492.142 372.695 484.212 386.5 471.484 386.5H407.695C394.967 386.5 387.037 372.695 393.45 361.702L432.467 294.824Z" fill="black"/>
<path d="M335.562 130.505C339.379 123.889 348.918 123.889 352.735 130.505L429.694 263.877C418.307 250.062 395.883 251.303 386.478 267.601L327.396 369.992C321.505 380.201 310.614 386.49 298.827 386.49H205.032C197.397 386.49 192.626 378.214 196.446 371.596L335.562 130.505Z" fill="black"/>
<path d="M164.461 130.462C168.279 123.846 177.817 123.846 181.634 130.462L258.594 263.834C247.206 250.019 224.782 251.26 215.378 267.558L156.295 369.949C150.404 380.158 139.513 386.447 127.726 386.447H33.9307C26.2961 386.447 21.5256 378.171 25.3447 371.553L164.461 130.462Z" fill="black"/>
<path d="M258.594 125.543C276.582 125.543 291.165 140.124 291.165 158.11C291.165 176.096 276.582 190.677 258.594 190.677C240.605 190.677 226.023 176.096 226.023 158.11C226.023 140.124 240.605 125.543 258.594 125.543Z" fill="black"/>
</svg>
