<svg width="124" height="69" viewBox="0 0 124 69" fill="none" xmlns="http://www.w3.org/2000/svg">
<path d="M31.8418 41.1308C26.0262 41.1308 22 36.4953 22 30.0654C22 23.6355 26.0262 19 31.8418 19C37.6574 19 40.0433 22.1402 40.6398 26.1776H38.403C37.9557 23.785 36.1663 20.9439 31.8418 20.9439C27.5174 20.9439 24.2368 25.2804 24.2368 30.0654C24.2368 34.8505 26.6227 39.1869 31.6927 39.1869C36.7627 39.1869 38.1048 36.0467 38.2539 33.0561H40.4907C40.0433 37.6916 36.6136 40.9813 31.5436 40.9813L31.8418 41.1308ZM49.736 25.1308C50.3325 25.1308 50.6308 25.1308 51.0781 25.1308V27.0748C50.7799 27.0748 50.4816 27.0748 50.1834 27.0748C47.4993 27.0748 45.4116 29.3178 45.4116 32.3084V40.8318H43.4731V25.5794H45.4116V28.7196C46.1572 26.7757 47.6484 25.2804 49.736 25.2804V25.1308ZM65.5426 32.4579C65.5426 32.9065 65.5426 33.3551 65.5426 33.5047H53.464C53.464 36.6449 55.1043 39.486 58.6832 39.486C62.262 39.486 63.0076 37.3925 63.3058 36.0467H65.2444C64.4988 38.8878 62.4111 41.1308 58.534 41.1308C54.657 41.1308 51.2272 37.6916 51.2272 33.0561C51.2272 28.4206 54.0605 24.9813 58.534 24.9813C63.0076 24.9813 65.3935 28.1215 65.3935 32.3084L65.5426 32.4579ZM53.464 31.8598H63.4549C63.4549 29.1682 61.6655 26.7757 58.534 26.7757C55.4025 26.7757 53.6131 29.0187 53.464 31.8598ZM72.4021 41.1308C69.4197 41.1308 67.4811 39.486 67.4811 36.9439C67.4811 34.4019 69.867 32.6075 73.7441 31.8598C76.2791 31.4112 77.9194 31.2617 77.9194 29.4673C77.9194 27.6729 76.8756 26.9252 74.4897 26.9252C72.1038 26.9252 70.4635 27.972 70.3144 30.215H68.2267C68.3759 27.5234 70.0162 25.2804 74.4897 25.2804C78.9633 25.2804 79.7089 26.4766 79.7089 30.0654V37.6916C79.7089 38.8879 79.858 39.486 80.6036 39.486C81.3492 39.486 80.9018 39.486 81.0509 39.486V40.8318C80.7527 40.8318 80.4545 40.8318 80.0071 40.8318C78.665 40.8318 77.9194 40.3832 77.9194 38.4393C76.8756 40.2336 75.0862 41.1308 72.5512 41.1308H72.4021ZM72.7003 39.486C75.8318 39.486 77.9194 37.8411 77.9194 35.1495V32.3084C77.4721 32.9065 75.8318 33.3551 74.0424 33.6542C71.06 34.2523 69.5688 35 69.5688 36.9439C69.5688 38.8879 70.6126 39.6355 72.7003 39.6355V39.486ZM89.1033 25.5794V27.2243H85.9718V36.7944C85.9718 38.7383 86.4192 39.1869 87.9104 39.1869C89.4016 39.1869 88.656 39.1869 89.1033 39.1869V40.8318C88.5069 40.8318 88.2086 40.8318 87.6121 40.8318C85.3754 40.8318 84.0333 40.0841 84.0333 36.7944V27.2243H81.7965V25.5794H84.0333V20.4953H85.9718V25.5794H89.1033ZM93.8751 23.1869H91.3401V20.6449H93.8751V23.1869ZM93.5769 40.8318H91.6383V25.5794H93.5769V40.8318ZM103.419 40.8318H101.182L95.6645 25.5794H97.7522L102.375 38.8879L106.848 25.5794H108.936L103.419 40.8318ZM123.997 32.4579C123.997 32.9065 123.997 33.3551 123.997 33.5047H111.918C111.918 36.6449 113.559 39.486 117.138 39.486C120.716 39.486 121.462 37.3925 121.76 36.0467H123.699C122.953 38.8878 120.866 41.1308 116.988 41.1308C113.111 41.1308 109.682 37.6916 109.682 33.0561C109.682 28.4206 112.515 24.9813 116.988 24.9813C121.462 24.9813 123.848 28.1215 123.848 32.3084L123.997 32.4579ZM111.918 31.8598H121.909C121.909 29.1682 120.12 26.7757 116.988 26.7757C113.857 26.7757 112.068 29.0187 111.918 31.8598ZM24.2368 68.8505H22V47.4673H24.9824L32.1401 65.8598L39.2977 47.4673H42.2801V68.8505H40.0433V50.6075L33.0348 68.8505H31.0962L24.2368 50.6075V68.8505ZM52.7184 68.8505C48.0957 68.8505 45.4116 65.5608 45.4116 60.7757C45.4116 55.9907 48.0957 52.7009 52.7184 52.7009C57.3411 52.7009 60.0252 55.9907 60.0252 60.7757C60.0252 65.5608 57.3411 68.8505 52.7184 68.8505ZM52.7184 67.2056C56.2973 67.2056 57.9376 64.3645 57.9376 60.9252C57.9376 57.486 56.1481 54.6449 52.7184 54.6449C49.2887 54.6449 47.4993 57.486 47.4993 60.9252C47.4993 64.3645 49.2887 67.2056 52.7184 67.2056ZM69.2706 68.8505C64.6479 68.8505 61.9638 65.5608 61.9638 60.7757C61.9638 55.9907 64.6479 52.7009 69.2706 52.7009C73.8932 52.7009 76.5774 55.9907 76.5774 60.7757C76.5774 65.5608 73.8932 68.8505 69.2706 68.8505ZM69.2706 67.2056C72.8494 67.2056 74.4897 64.3645 74.4897 60.9252C74.4897 57.486 72.7003 54.6449 69.2706 54.6449C65.8408 54.6449 64.0514 57.486 64.0514 60.9252C64.0514 64.3645 65.8408 67.2056 69.2706 67.2056ZM86.4192 53.4486C88.1092 53.4486 91.4892 54.999 91.4892 58.2336V69H89.5507V58.6822C89.5507 56.7383 88.656 55.0935 85.9718 55.0935C83.2877 55.0935 81.2 57.1869 81.2 59.4299V69H79.2615V53.7477H81.2V55.9907C82.0948 54.7944 83.7351 53.4486 86.4192 53.4486Z" fill="white"/>
<mask id="mask0_127_70" style="mask-type:luminance" maskUnits="userSpaceOnUse" x="0" y="0" width="60" height="59">
<path d="M0 0H59.8391V58.2761H0V0Z" fill="white"/>
</mask>
<g mask="url(#mask0_127_70)">
<path fill-rule="evenodd" clip-rule="evenodd" d="M35.5782 2.69532C45.1665 2.69532 53.8 6.77855 59.8391 13.2991C53.7745 5.22389 44.1186 0 33.2423 0C14.883 0 0 14.883 0 33.2423C0 43.2272 4.40307 52.1826 11.3724 58.2762C5.87813 52.3727 2.51563 44.4586 2.51563 35.7579C2.51563 17.4978 17.3181 2.69532 35.5782 2.69532Z" fill="white"/>
</g>
</svg>
