<svg width="102" height="50" viewBox="0 0 102 50" fill="none" xmlns="http://www.w3.org/2000/svg">
<path d="M9.84182 22.1308C4.0262 22.1308 0 17.4953 0 11.0654C0 4.63551 4.0262 0 9.84182 0C15.6574 0 18.0433 3.14019 18.6398 7.17757H16.403C15.9557 4.78505 14.1663 1.94393 9.84182 1.94393C5.51738 1.94393 2.23678 6.28037 2.23678 11.0654C2.23678 15.8505 4.62267 20.1869 9.6927 20.1869C14.7627 20.1869 16.1048 17.0467 16.2539 14.0561H18.4907C18.0433 18.6916 14.6136 21.9813 9.54358 21.9813L9.84182 22.1308ZM27.736 6.13084C28.3325 6.13084 28.6308 6.13084 29.0781 6.13084V8.07477C28.7799 8.07477 28.4816 8.07477 28.1834 8.07477C25.4993 8.07477 23.4116 10.3178 23.4116 13.3084V21.8318H21.4731V6.57944H23.4116V9.71963C24.1572 7.7757 25.6484 6.28037 27.736 6.28037V6.13084ZM43.5426 13.4579C43.5426 13.9065 43.5426 14.3551 43.5426 14.5047H31.464C31.464 17.6449 33.1043 20.486 36.6832 20.486C40.262 20.486 41.0076 18.3925 41.3058 17.0467H43.2444C42.4988 19.8878 40.4111 22.1308 36.534 22.1308C32.657 22.1308 29.2272 18.6916 29.2272 14.0561C29.2272 9.42056 32.0605 5.98131 36.534 5.98131C41.0076 5.98131 43.3935 9.12149 43.3935 13.3084L43.5426 13.4579ZM31.464 12.8598H41.4549C41.4549 10.1682 39.6655 7.7757 36.534 7.7757C33.4025 7.7757 31.6131 10.0187 31.464 12.8598ZM50.4021 22.1308C47.4197 22.1308 45.4811 20.486 45.4811 17.9439C45.4811 15.4019 47.867 13.6075 51.7441 12.8598C54.2791 12.4112 55.9194 12.2617 55.9194 10.4673C55.9194 8.6729 54.8756 7.92523 52.4897 7.92523C50.1038 7.92523 48.4635 8.97196 48.3144 11.215H46.2267C46.3759 8.52336 48.0162 6.28037 52.4897 6.28037C56.9633 6.28037 57.7089 7.47664 57.7089 11.0654V18.6916C57.7089 19.8879 57.858 20.486 58.6036 20.486C59.3492 20.486 58.9018 20.486 59.0509 20.486V21.8318C58.7527 21.8318 58.4545 21.8318 58.0071 21.8318C56.665 21.8318 55.9194 21.3832 55.9194 19.4393C54.8756 21.2336 53.0862 22.1308 50.5512 22.1308H50.4021ZM50.7003 20.486C53.8318 20.486 55.9194 18.8411 55.9194 16.1495V13.3084C55.4721 13.9065 53.8318 14.3551 52.0424 14.6542C49.06 15.2523 47.5688 16 47.5688 17.9439C47.5688 19.8879 48.6126 20.6355 50.7003 20.6355V20.486ZM67.1033 6.57944V8.2243H63.9718V17.7944C63.9718 19.7383 64.4192 20.1869 65.9104 20.1869C67.4016 20.1869 66.656 20.1869 67.1033 20.1869V21.8318C66.5069 21.8318 66.2086 21.8318 65.6121 21.8318C63.3754 21.8318 62.0333 21.0841 62.0333 17.7944V8.2243H59.7965V6.57944H62.0333V1.49533H63.9718V6.57944H67.1033ZM71.8751 4.18692H69.3401V1.64486H71.8751V4.18692ZM71.5769 21.8318H69.6383V6.57944H71.5769V21.8318ZM81.4187 21.8318H79.1819L73.6645 6.57944H75.7522L80.3749 19.8879L84.8484 6.57944H86.9361L81.4187 21.8318ZM101.997 13.4579C101.997 13.9065 101.997 14.3551 101.997 14.5047H89.9185C89.9185 17.6449 91.5588 20.486 95.1376 20.486C98.7164 20.486 99.462 18.3925 99.7603 17.0467H101.699C100.953 19.8878 98.8656 22.1308 94.9885 22.1308C91.1114 22.1308 87.6817 18.6916 87.6817 14.0561C87.6817 9.42056 90.5149 5.98131 94.9885 5.98131C99.462 5.98131 101.848 9.12149 101.848 13.3084L101.997 13.4579ZM89.9185 12.8598H99.9094C99.9094 10.1682 98.12 7.7757 94.9885 7.7757C91.857 7.7757 90.0676 10.0187 89.9185 12.8598ZM2.23678 49.8505H0V28.4673H2.98237L10.1401 46.8598L17.2977 28.4673H20.2801V49.8505H18.0433V31.6075L11.0348 49.8505H9.09623L2.23678 31.6075V49.8505ZM30.7184 49.8505C26.0957 49.8505 23.4116 46.5608 23.4116 41.7757C23.4116 36.9907 26.0957 33.7009 30.7184 33.7009C35.3411 33.7009 38.0252 36.9907 38.0252 41.7757C38.0252 46.5608 35.3411 49.8505 30.7184 49.8505ZM30.7184 48.2056C34.2973 48.2056 35.9376 45.3645 35.9376 41.9252C35.9376 38.486 34.1481 35.6449 30.7184 35.6449C27.2887 35.6449 25.4993 38.486 25.4993 41.9252C25.4993 45.3645 27.2887 48.2056 30.7184 48.2056ZM47.2706 49.8505C42.6479 49.8505 39.9638 46.5608 39.9638 41.7757C39.9638 36.9907 42.6479 33.7009 47.2706 33.7009C51.8932 33.7009 54.5774 36.9907 54.5774 41.7757C54.5774 46.5608 51.8932 49.8505 47.2706 49.8505ZM47.2706 48.2056C50.8494 48.2056 52.4897 45.3645 52.4897 41.9252C52.4897 38.486 50.7003 35.6449 47.2706 35.6449C43.8408 35.6449 42.0514 38.486 42.0514 41.9252C42.0514 45.3645 43.8408 48.2056 47.2706 48.2056ZM64.4192 34.4486C66.1092 34.4486 69.4892 35.999 69.4892 39.2336V50H67.5507V39.6822C67.5507 37.7383 66.656 36.0935 63.9718 36.0935C61.2877 36.0935 59.2 38.1869 59.2 40.4299V50H57.2615V34.7477H59.2V36.9907C60.0948 35.7944 61.7351 34.4486 64.4192 34.4486Z" fill="white"/>
</svg>
